<?xml version="1.0" encoding="UTF-8" standalone="no"?>
<!DOCTYPE svg PUBLIC "-//W3C//DTD SVG 1.1//EN"
 "http://www.w3.org/Graphics/SVG/1.1/DTD/svg11.dtd">
<!-- Generated by graphviz version 2.40.1 (20161225.0304)
 -->
<!-- Title: Susan_Barlow Pages: 1 -->
<svg width="1391pt" height="1307pt"
 viewBox="0.00 0.00 1390.88 1306.65" xmlns="http://www.w3.org/2000/svg" xmlns:xlink="http://www.w3.org/1999/xlink">
<g id="graph0" class="graph" transform="scale(1 1) rotate(0) translate(4 1302.6473)">
<title>Susan_Barlow</title>
<polygon fill="#ffffff" stroke="transparent" points="-4,4 -4,-1302.6473 1386.8781,-1302.6473 1386.8781,4 -4,4"/>
<!-- 09102017 -->
<g id="node1" class="node">
<title>09102017</title>
<ellipse fill="none" stroke="#000000" cx="1051.0802" cy="-979.6759" rx="46.2923" ry="18"/>
<text text-anchor="middle" x="1051.0802" y="-975.9759" font-family="Times,serif" font-size="14.00" fill="#000000">09102017</text>
</g>
<!-- 00:23|09102017 -->
<g id="node2" class="node">
<title>00:23|09102017</title>
<ellipse fill="none" stroke="#000000" cx="1158.455" cy="-1094.6901" rx="30.5947" ry="18"/>
<text text-anchor="middle" x="1158.455" y="-1090.9901" font-family="Times,serif" font-size="14.00" fill="#000000">00:23</text>
</g>
<!-- 09102017&#45;&gt;00:23|09102017 -->
<g id="edge1" class="edge">
<title>09102017&#45;&gt;00:23|09102017</title>
<path fill="none" stroke="#000000" d="M1066.9237,-996.6466C1085.3967,-1016.4339 1116.032,-1049.2488 1136.7189,-1071.4075"/>
<polygon fill="#000000" stroke="#000000" points="1134.2024,-1073.8408 1143.5849,-1078.7621 1139.3192,-1069.0639 1134.2024,-1073.8408"/>
</g>
<!-- 00:28|09102017 -->
<g id="node5" class="node">
<title>00:28|09102017</title>
<ellipse fill="none" stroke="#000000" cx="945.0047" cy="-855.6646" rx="30.5947" ry="18"/>
<text text-anchor="middle" x="945.0047" y="-851.9646" font-family="Times,serif" font-size="14.00" fill="#000000">00:28</text>
</g>
<!-- 09102017&#45;&gt;00:28|09102017 -->
<g id="edge5" class="edge">
<title>09102017&#45;&gt;00:28|09102017</title>
<path fill="none" stroke="#000000" d="M1036.3308,-962.4326C1017.9185,-940.9071 986.324,-903.9704 965.5497,-879.6835"/>
<polygon fill="#000000" stroke="#000000" points="968.1139,-877.2967 958.954,-871.9725 962.7945,-881.8468 968.1139,-877.2967"/>
</g>
<!-- 212.58.244.57|09102017|00:23 -->
<g id="node3" class="node">
<title>212.58.244.57|09102017|00:23</title>
<ellipse fill="none" stroke="#000000" cx="1315.7029" cy="-1088.2536" rx="67.3507" ry="48.1667"/>
<text text-anchor="middle" x="1315.7029" y="-1107.0536" font-family="Times,serif" font-size="14.00" fill="#000000">212.58.244.57</text>
<text text-anchor="middle" x="1315.7029" y="-1092.0536" font-family="Times,serif" font-size="14.00" fill="#000000">BBC</text>
<text text-anchor="middle" x="1315.7029" y="-1077.0536" font-family="Times,serif" font-size="14.00" fill="#000000">AS2818</text>
<text text-anchor="middle" x="1315.7029" y="-1062.0536" font-family="Times,serif" font-size="14.00" fill="#000000">GB</text>
</g>
<!-- 00:23|09102017&#45;&gt;212.58.244.57|09102017|00:23 -->
<g id="edge2" class="edge">
<title>00:23|09102017&#45;&gt;212.58.244.57|09102017|00:23</title>
<path fill="none" stroke="#000000" d="M1189.1473,-1093.4338C1203.2685,-1092.8558 1220.7254,-1092.1412 1238.1147,-1091.4295"/>
<polygon fill="#000000" stroke="#000000" points="1238.4713,-1094.9179 1248.3198,-1091.0118 1238.185,-1087.9238 1238.4713,-1094.9179"/>
</g>
<!-- 212.58.249.145|09102017|00:23 -->
<g id="node4" class="node">
<title>212.58.249.145|09102017|00:23</title>
<ellipse fill="none" stroke="#000000" cx="1139.0679" cy="-1250.564" rx="72.25" ry="48.1667"/>
<text text-anchor="middle" x="1139.0679" y="-1269.364" font-family="Times,serif" font-size="14.00" fill="#000000">212.58.249.145</text>
<text text-anchor="middle" x="1139.0679" y="-1254.364" font-family="Times,serif" font-size="14.00" fill="#000000">BBC</text>
<text text-anchor="middle" x="1139.0679" y="-1239.364" font-family="Times,serif" font-size="14.00" fill="#000000">AS2818</text>
<text text-anchor="middle" x="1139.0679" y="-1224.364" font-family="Times,serif" font-size="14.00" fill="#000000">GB</text>
</g>
<!-- 00:23|09102017&#45;&gt;212.58.249.145|09102017|00:23 -->
<g id="edge4" class="edge">
<title>00:23|09102017&#45;&gt;212.58.249.145|09102017|00:23</title>
<path fill="none" stroke="#000000" d="M1156.1931,-1112.8759C1153.7734,-1132.3306 1149.8097,-1164.1992 1146.3047,-1192.3793"/>
<polygon fill="#000000" stroke="#000000" points="1142.799,-1192.2092 1145.0379,-1202.5647 1149.7455,-1193.0732 1142.799,-1192.2092"/>
</g>
<!-- 151.101.193.67|09102017|00:28 -->
<g id="node6" class="node">
<title>151.101.193.67|09102017|00:28</title>
<ellipse fill="none" stroke="#000000" cx="820.0538" cy="-961.4896" rx="72.25" ry="48.1667"/>
<text text-anchor="middle" x="820.0538" y="-980.2896" font-family="Times,serif" font-size="14.00" fill="#000000">151.101.193.67</text>
<text text-anchor="middle" x="820.0538" y="-965.2896" font-family="Times,serif" font-size="14.00" fill="#000000">CNN</text>
<text text-anchor="middle" x="820.0538" y="-950.2896" font-family="Times,serif" font-size="14.00" fill="#000000">AS6983</text>
<text text-anchor="middle" x="820.0538" y="-935.2896" font-family="Times,serif" font-size="14.00" fill="#000000">US</text>
</g>
<!-- 00:28|09102017&#45;&gt;151.101.193.67|09102017|00:28 -->
<g id="edge6" class="edge">
<title>00:28|09102017&#45;&gt;151.101.193.67|09102017|00:28</title>
<path fill="none" stroke="#000000" d="M927.3673,-870.6023C913.0549,-882.724 892.1069,-900.4656 872.5094,-917.0633"/>
<polygon fill="#000000" stroke="#000000" points="870.1641,-914.4629 864.7952,-923.5967 874.6882,-919.8046 870.1641,-914.4629"/>
</g>
<!-- 151.101.1.67|09102017|00:28 -->
<g id="node10" class="node">
<title>151.101.1.67|09102017|00:28</title>
<ellipse fill="none" stroke="#000000" cx="791.9325" cy="-806.0033" rx="62.8651" ry="48.1667"/>
<text text-anchor="middle" x="791.9325" y="-824.8033" font-family="Times,serif" font-size="14.00" fill="#000000">151.101.1.67</text>
<text text-anchor="middle" x="791.9325" y="-809.8033" font-family="Times,serif" font-size="14.00" fill="#000000">CNN</text>
<text text-anchor="middle" x="791.9325" y="-794.8033" font-family="Times,serif" font-size="14.00" fill="#000000">AS6983</text>
<text text-anchor="middle" x="791.9325" y="-779.8033" font-family="Times,serif" font-size="14.00" fill="#000000">US</text>
</g>
<!-- 00:28|09102017&#45;&gt;151.101.1.67|09102017|00:28 -->
<g id="edge10" class="edge">
<title>00:28|09102017&#45;&gt;151.101.1.67|09102017|00:28</title>
<path fill="none" stroke="#000000" d="M917.9909,-846.9005C901.7643,-841.6361 880.3333,-834.6832 859.7538,-828.0066"/>
<polygon fill="#000000" stroke="#000000" points="860.6564,-824.6199 850.0643,-824.863 858.4961,-831.2782 860.6564,-824.6199"/>
</g>
<!-- 151.101.129.67|09102017|00:28 -->
<g id="node11" class="node">
<title>151.101.129.67|09102017|00:28</title>
<ellipse fill="none" stroke="#000000" cx="1068.1771" cy="-748.0978" rx="72.25" ry="48.1667"/>
<text text-anchor="middle" x="1068.1771" y="-766.8978" font-family="Times,serif" font-size="14.00" fill="#000000">151.101.129.67</text>
<text text-anchor="middle" x="1068.1771" y="-751.8978" font-family="Times,serif" font-size="14.00" fill="#000000">CNN</text>
<text text-anchor="middle" x="1068.1771" y="-736.8978" font-family="Times,serif" font-size="14.00" fill="#000000">AS6983</text>
<text text-anchor="middle" x="1068.1771" y="-721.8978" font-family="Times,serif" font-size="14.00" fill="#000000">US</text>
</g>
<!-- 00:28|09102017&#45;&gt;151.101.129.67|09102017|00:28 -->
<g id="edge12" class="edge">
<title>00:28|09102017&#45;&gt;151.101.129.67|09102017|00:28</title>
<path fill="none" stroke="#000000" d="M962.1313,-840.7079C976.2535,-828.375 997.054,-810.2098 1016.5008,-793.2269"/>
<polygon fill="#000000" stroke="#000000" points="1018.9249,-795.7568 1024.1547,-786.5427 1014.3204,-790.4843 1018.9249,-795.7568"/>
</g>
<!-- 151.101.65.67|09102017|00:28 -->
<g id="node15" class="node">
<title>151.101.65.67|09102017|00:28</title>
<ellipse fill="none" stroke="#000000" cx="920.8624" cy="-696.0833" rx="67.3507" ry="48.1667"/>
<text text-anchor="middle" x="920.8624" y="-714.8833" font-family="Times,serif" font-size="14.00" fill="#000000">151.101.65.67</text>
<text text-anchor="middle" x="920.8624" y="-699.8833" font-family="Times,serif" font-size="14.00" fill="#000000">CNN</text>
<text text-anchor="middle" x="920.8624" y="-684.8833" font-family="Times,serif" font-size="14.00" fill="#000000">AS6983</text>
<text text-anchor="middle" x="920.8624" y="-669.8833" font-family="Times,serif" font-size="14.00" fill="#000000">US</text>
</g>
<!-- 00:28|09102017&#45;&gt;151.101.65.67|09102017|00:28 -->
<g id="edge22" class="edge">
<title>00:28|09102017&#45;&gt;151.101.65.67|09102017|00:28</title>
<path fill="none" stroke="#000000" d="M942.2822,-837.6688C939.2266,-817.4711 934.1118,-783.6619 929.6465,-754.1463"/>
<polygon fill="#000000" stroke="#000000" points="933.0551,-753.2787 928.0986,-743.9148 926.1339,-754.3258 933.0551,-753.2787"/>
</g>
<!-- 04102017 -->
<g id="node7" class="node">
<title>04102017</title>
<ellipse fill="none" stroke="#000000" cx="430.3252" cy="-369.0512" rx="46.2923" ry="18"/>
<text text-anchor="middle" x="430.3252" y="-365.3512" font-family="Times,serif" font-size="14.00" fill="#000000">04102017</text>
</g>
<!-- 15:22|04102017 -->
<g id="node8" class="node">
<title>15:22|04102017</title>
<ellipse fill="none" stroke="#000000" cx="524.0852" cy="-544.376" rx="30.5947" ry="18"/>
<text text-anchor="middle" x="524.0852" y="-540.676" font-family="Times,serif" font-size="14.00" fill="#000000">15:22</text>
</g>
<!-- 04102017&#45;&gt;15:22|04102017 -->
<g id="edge7" class="edge">
<title>04102017&#45;&gt;15:22|04102017</title>
<path fill="none" stroke="#000000" d="M439.8314,-386.8271C456.4132,-417.834 490.6975,-481.9432 510.0305,-518.0945"/>
<polygon fill="#000000" stroke="#000000" points="507.0296,-519.9051 514.8319,-527.0728 513.2024,-516.604 507.0296,-519.9051"/>
</g>
<!-- 15:23|04102017 -->
<g id="node16" class="node">
<title>15:23|04102017</title>
<ellipse fill="none" stroke="#000000" cx="344.3028" cy="-207.4585" rx="30.5947" ry="18"/>
<text text-anchor="middle" x="344.3028" y="-203.7585" font-family="Times,serif" font-size="14.00" fill="#000000">15:23</text>
</g>
<!-- 04102017&#45;&gt;15:23|04102017 -->
<g id="edge23" class="edge">
<title>04102017&#45;&gt;15:23|04102017</title>
<path fill="none" stroke="#000000" d="M420.7906,-351.1405C405.6613,-322.7202 376.0698,-267.1327 358.4583,-234.0497"/>
<polygon fill="#000000" stroke="#000000" points="361.4072,-232.1407 353.6186,-224.9582 355.2282,-235.4301 361.4072,-232.1407"/>
</g>
<!-- 15:24|04102017 -->
<g id="node18" class="node">
<title>15:24|04102017</title>
<ellipse fill="none" stroke="#000000" cx="567.6993" cy="-235.7377" rx="30.5947" ry="18"/>
<text text-anchor="middle" x="567.6993" y="-232.0377" font-family="Times,serif" font-size="14.00" fill="#000000">15:24</text>
</g>
<!-- 04102017&#45;&gt;15:24|04102017 -->
<g id="edge25" class="edge">
<title>04102017&#45;&gt;15:24|04102017</title>
<path fill="none" stroke="#000000" d="M447.7237,-352.167C472.2734,-328.343 517.1315,-284.8108 544.4955,-258.2556"/>
<polygon fill="#000000" stroke="#000000" points="546.9794,-260.7223 551.7182,-251.2464 542.1044,-255.6989 546.9794,-260.7223"/>
</g>
<!-- 15:25|04102017 -->
<g id="node20" class="node">
<title>15:25|04102017</title>
<ellipse fill="none" stroke="#000000" cx="242.9065" cy="-407.7228" rx="30.5947" ry="18"/>
<text text-anchor="middle" x="242.9065" y="-404.0228" font-family="Times,serif" font-size="14.00" fill="#000000">15:25</text>
</g>
<!-- 04102017&#45;&gt;15:25|04102017 -->
<g id="edge27" class="edge">
<title>04102017&#45;&gt;15:25|04102017</title>
<path fill="none" stroke="#000000" d="M389.1954,-377.5379C357.2481,-384.1298 313.2463,-393.209 281.8634,-399.6845"/>
<polygon fill="#000000" stroke="#000000" points="280.8263,-396.3247 271.7399,-401.7734 282.2409,-403.1803 280.8263,-396.3247"/>
</g>
<!-- 54.230.8.34|04102017|15:22 -->
<g id="node9" class="node">
<title>54.230.8.34|04102017|15:22</title>
<ellipse fill="none" stroke="#000000" cx="704.0493" cy="-499.6964" rx="67.3507" ry="48.1667"/>
<text text-anchor="middle" x="704.0493" y="-518.4964" font-family="Times,serif" font-size="14.00" fill="#000000">54.230.8.34</text>
<text text-anchor="middle" x="704.0493" y="-503.4964" font-family="Times,serif" font-size="14.00" fill="#000000">TELEGRAPH</text>
<text text-anchor="middle" x="704.0493" y="-488.4964" font-family="Times,serif" font-size="14.00" fill="#000000">AS16509</text>
<text text-anchor="middle" x="704.0493" y="-473.4964" font-family="Times,serif" font-size="14.00" fill="#000000">US</text>
</g>
<!-- 15:22|04102017&#45;&gt;54.230.8.34|04102017|15:22 -->
<g id="edge8" class="edge">
<title>15:22|04102017&#45;&gt;54.230.8.34|04102017|15:22</title>
<path fill="none" stroke="#000000" d="M552.6011,-537.2964C573.5213,-532.1025 602.9324,-524.8006 630.2779,-518.0116"/>
<polygon fill="#000000" stroke="#000000" points="631.3775,-521.3449 640.2395,-515.5384 629.6908,-514.5511 631.3775,-521.3449"/>
</g>
<!-- 54.230.8.209|04102017|15:22 -->
<g id="node12" class="node">
<title>54.230.8.209|04102017|15:22</title>
<ellipse fill="none" stroke="#000000" cx="530.1915" cy="-728.9831" rx="67.3507" ry="48.1667"/>
<text text-anchor="middle" x="530.1915" y="-747.7831" font-family="Times,serif" font-size="14.00" fill="#000000">54.230.8.209</text>
<text text-anchor="middle" x="530.1915" y="-732.7831" font-family="Times,serif" font-size="14.00" fill="#000000">TELEGRAPH</text>
<text text-anchor="middle" x="530.1915" y="-717.7831" font-family="Times,serif" font-size="14.00" fill="#000000">AS16509</text>
<text text-anchor="middle" x="530.1915" y="-702.7831" font-family="Times,serif" font-size="14.00" fill="#000000">US</text>
</g>
<!-- 15:22|04102017&#45;&gt;54.230.8.209|04102017|15:22 -->
<g id="edge14" class="edge">
<title>15:22|04102017&#45;&gt;54.230.8.209|04102017|15:22</title>
<path fill="none" stroke="#000000" d="M524.6819,-562.413C525.502,-587.209 527.0165,-632.9954 528.2504,-670.2976"/>
<polygon fill="#000000" stroke="#000000" points="524.7613,-670.6905 528.5901,-680.5693 531.7575,-670.459 524.7613,-670.6905"/>
</g>
<!-- 54.230.8.153|04102017|15:22 -->
<g id="node13" class="node">
<title>54.230.8.153|04102017|15:22</title>
<ellipse fill="none" stroke="#000000" cx="676.0068" cy="-650.055" rx="67.3507" ry="48.1667"/>
<text text-anchor="middle" x="676.0068" y="-668.855" font-family="Times,serif" font-size="14.00" fill="#000000">54.230.8.153</text>
<text text-anchor="middle" x="676.0068" y="-653.855" font-family="Times,serif" font-size="14.00" fill="#000000">TELEGRAPH</text>
<text text-anchor="middle" x="676.0068" y="-638.855" font-family="Times,serif" font-size="14.00" fill="#000000">AS16509</text>
<text text-anchor="middle" x="676.0068" y="-623.855" font-family="Times,serif" font-size="14.00" fill="#000000">US</text>
</g>
<!-- 15:22|04102017&#45;&gt;54.230.8.153|04102017|15:22 -->
<g id="edge16" class="edge">
<title>15:22|04102017&#45;&gt;54.230.8.153|04102017|15:22</title>
<path fill="none" stroke="#000000" d="M543.9463,-558.1917C563.0337,-571.4691 592.7986,-592.1741 619.2421,-610.5686"/>
<polygon fill="#000000" stroke="#000000" points="617.4853,-613.6101 627.6932,-616.4473 621.4827,-607.8636 617.4853,-613.6101"/>
</g>
<!-- 54.230.8.121|04102017|15:22 -->
<g id="node14" class="node">
<title>54.230.8.121|04102017|15:22</title>
<ellipse fill="none" stroke="#000000" cx="387.827" cy="-670.2198" rx="67.3507" ry="48.1667"/>
<text text-anchor="middle" x="387.827" y="-689.0198" font-family="Times,serif" font-size="14.00" fill="#000000">54.230.8.121</text>
<text text-anchor="middle" x="387.827" y="-674.0198" font-family="Times,serif" font-size="14.00" fill="#000000">TELEGRAPH</text>
<text text-anchor="middle" x="387.827" y="-659.0198" font-family="Times,serif" font-size="14.00" fill="#000000">AS16509</text>
<text text-anchor="middle" x="387.827" y="-644.0198" font-family="Times,serif" font-size="14.00" fill="#000000">US</text>
</g>
<!-- 15:22|04102017&#45;&gt;54.230.8.121|04102017|15:22 -->
<g id="edge20" class="edge">
<title>15:22|04102017&#45;&gt;54.230.8.121|04102017|15:22</title>
<path fill="none" stroke="#000000" d="M507.6493,-559.5557C490.1373,-575.7292 461.5713,-602.1119 436.7232,-625.0608"/>
<polygon fill="#000000" stroke="#000000" points="434.119,-622.7016 429.1474,-632.0575 438.8684,-627.8439 434.119,-622.7016"/>
</g>
<!-- 54.230.8.121|04102017|15:23 -->
<g id="node17" class="node">
<title>54.230.8.121|04102017|15:23</title>
<ellipse fill="none" stroke="#000000" cx="270.7938" cy="-48.0833" rx="67.3507" ry="48.1667"/>
<text text-anchor="middle" x="270.7938" y="-66.8833" font-family="Times,serif" font-size="14.00" fill="#000000">54.230.8.121</text>
<text text-anchor="middle" x="270.7938" y="-51.8833" font-family="Times,serif" font-size="14.00" fill="#000000">TELEGRAPH</text>
<text text-anchor="middle" x="270.7938" y="-36.8833" font-family="Times,serif" font-size="14.00" fill="#000000">AS16509</text>
<text text-anchor="middle" x="270.7938" y="-21.8833" font-family="Times,serif" font-size="14.00" fill="#000000">US</text>
</g>
<!-- 15:23|04102017&#45;&gt;54.230.8.121|04102017|15:23 -->
<g id="edge24" class="edge">
<title>15:23|04102017&#45;&gt;54.230.8.121|04102017|15:23</title>
<path fill="none" stroke="#000000" d="M336.1552,-189.7937C326.5682,-169.008 310.1855,-133.4886 296.2208,-103.2117"/>
<polygon fill="#000000" stroke="#000000" points="299.3413,-101.6205 291.9748,-94.0058 292.9849,-104.5524 299.3413,-101.6205"/>
</g>
<!-- 54.230.8.121|04102017|15:24 -->
<g id="node19" class="node">
<title>54.230.8.121|04102017|15:24</title>
<ellipse fill="none" stroke="#000000" cx="688.539" cy="-105.4101" rx="67.3507" ry="48.1667"/>
<text text-anchor="middle" x="688.539" y="-124.2101" font-family="Times,serif" font-size="14.00" fill="#000000">54.230.8.121</text>
<text text-anchor="middle" x="688.539" y="-109.2101" font-family="Times,serif" font-size="14.00" fill="#000000">TELEGRAPH</text>
<text text-anchor="middle" x="688.539" y="-94.2101" font-family="Times,serif" font-size="14.00" fill="#000000">AS16509</text>
<text text-anchor="middle" x="688.539" y="-79.2101" font-family="Times,serif" font-size="14.00" fill="#000000">US</text>
</g>
<!-- 15:24|04102017&#45;&gt;54.230.8.121|04102017|15:24 -->
<g id="edge26" class="edge">
<title>15:24|04102017&#45;&gt;54.230.8.121|04102017|15:24</title>
<path fill="none" stroke="#000000" d="M582.5166,-219.757C597.871,-203.197 622.6193,-176.5055 644.3447,-153.0743"/>
<polygon fill="#000000" stroke="#000000" points="647.0439,-155.311 651.2765,-145.5983 641.9108,-150.5516 647.0439,-155.311"/>
</g>
<!-- 54.230.8.121|04102017|15:25 -->
<g id="node21" class="node">
<title>54.230.8.121|04102017|15:25</title>
<ellipse fill="none" stroke="#000000" cx="67.1751" cy="-432.0108" rx="67.3507" ry="48.1667"/>
<text text-anchor="middle" x="67.1751" y="-450.8108" font-family="Times,serif" font-size="14.00" fill="#000000">54.230.8.121</text>
<text text-anchor="middle" x="67.1751" y="-435.8108" font-family="Times,serif" font-size="14.00" fill="#000000">TELEGRAPH</text>
<text text-anchor="middle" x="67.1751" y="-420.8108" font-family="Times,serif" font-size="14.00" fill="#000000">AS16509</text>
<text text-anchor="middle" x="67.1751" y="-405.8108" font-family="Times,serif" font-size="14.00" fill="#000000">US</text>
</g>
<!-- 15:25|04102017&#45;&gt;54.230.8.121|04102017|15:25 -->
<g id="edge28" class="edge">
<title>15:25|04102017&#45;&gt;54.230.8.121|04102017|15:25</title>
<path fill="none" stroke="#000000" d="M213.096,-411.8429C193.9034,-414.4956 168.0216,-418.0727 143.3845,-421.4778"/>
<polygon fill="#000000" stroke="#000000" points="142.7194,-418.0364 133.2928,-422.8726 143.6778,-424.9705 142.7194,-418.0364"/>
</g>
</g>
</svg>
