<?xml version="1.0" encoding="UTF-8" standalone="no"?>
<!DOCTYPE svg PUBLIC "-//W3C//DTD SVG 1.1//EN"
 "http://www.w3.org/Graphics/SVG/1.1/DTD/svg11.dtd">
<!-- Generated by graphviz version 2.40.1 (20161225.0304)
 -->
<!-- Title: Susan_Barlow Pages: 1 -->
<svg width="680pt" height="654pt"
 viewBox="0.00 0.00 680.07 654.30" xmlns="http://www.w3.org/2000/svg" xmlns:xlink="http://www.w3.org/1999/xlink">
<g id="graph0" class="graph" transform="scale(1 1) rotate(0) translate(4 650.2984)">
<title>Susan_Barlow</title>
<polygon fill="#ffffff" stroke="transparent" points="-4,4 -4,-650.2984 676.0656,-650.2984 676.0656,4 -4,4"/>
<!-- 212.58.244.57|09102017|00:23 -->
<g id="node1" class="node">
<title>212.58.244.57|09102017|00:23</title>
<polygon fill="none" stroke="#ff0000" points="525.8316,-579.8909 430.8316,-579.8909 430.8316,-511.8909 525.8316,-511.8909 525.8316,-579.8909"/>
<text text-anchor="middle" x="478.3316" y="-564.6909" font-family="Times,serif" font-size="14.00" fill="#000000">BBC</text>
<text text-anchor="middle" x="478.3316" y="-549.6909" font-family="Times,serif" font-size="14.00" fill="#000000">212.58.244.57</text>
<text text-anchor="middle" x="478.3316" y="-534.6909" font-family="Times,serif" font-size="14.00" fill="#000000">09102017</text>
<text text-anchor="middle" x="478.3316" y="-519.6909" font-family="Times,serif" font-size="14.00" fill="#000000">00:23</text>
</g>
<!-- AS2818 -->
<g id="node2" class="node">
<title>AS2818</title>
<ellipse fill="none" stroke="#000000" cx="573.4876" cy="-545.8909" rx="39.7935" ry="18"/>
<text text-anchor="middle" x="573.4876" y="-542.1909" font-family="Times,serif" font-size="14.00" fill="#000000">AS2818</text>
</g>
<!-- 212.58.244.57|09102017|00:23&#45;&gt;AS2818 -->
<g id="edge1" class="edge">
<title>212.58.244.57|09102017|00:23&#45;&gt;AS2818</title>
<path fill="none" stroke="#000000" d="M525.9096,-545.8909C526.0722,-545.8909 526.2348,-545.8909 526.3974,-545.8909"/>
<polygon fill="#000000" stroke="#000000" points="523.6843,-549.3911 533.6842,-545.8909 523.6842,-542.3911 523.6843,-549.3911"/>
</g>
<!-- GB -->
<g id="node3" class="node">
<title>GB</title>
<polygon fill="none" stroke="#000000" points="621.0656,-646.2984 588.7237,-628.2984 621.0656,-610.2984 653.4075,-628.2984 621.0656,-646.2984"/>
<text text-anchor="middle" x="621.0656" y="-624.5984" font-family="Times,serif" font-size="14.00" fill="#000000">GB</text>
</g>
<!-- AS2818&#45;&gt;GB -->
<g id="edge2" class="edge">
<title>AS2818&#45;&gt;GB</title>
<path fill="none" stroke="#000000" d="M583.5777,-563.3674C590.6894,-575.6854 600.279,-592.295 607.9788,-605.6315"/>
<polygon fill="#000000" stroke="#000000" points="605.1579,-607.7456 613.189,-614.6558 611.2201,-604.2456 605.1579,-607.7456"/>
</g>
<!-- 212.58.249.145|09102017|00:23 -->
<g id="node4" class="node">
<title>212.58.249.145|09102017|00:23</title>
<polygon fill="none" stroke="#ff0000" points="672.0656,-497.4834 570.0656,-497.4834 570.0656,-429.4834 672.0656,-429.4834 672.0656,-497.4834"/>
<text text-anchor="middle" x="621.0656" y="-482.2834" font-family="Times,serif" font-size="14.00" fill="#000000">BBC</text>
<text text-anchor="middle" x="621.0656" y="-467.2834" font-family="Times,serif" font-size="14.00" fill="#000000">212.58.249.145</text>
<text text-anchor="middle" x="621.0656" y="-452.2834" font-family="Times,serif" font-size="14.00" fill="#000000">09102017</text>
<text text-anchor="middle" x="621.0656" y="-437.2834" font-family="Times,serif" font-size="14.00" fill="#000000">00:23</text>
</g>
<!-- 212.58.249.145|09102017|00:23&#45;&gt;AS2818 -->
<g id="edge3" class="edge">
<title>212.58.249.145|09102017|00:23&#45;&gt;AS2818</title>
<path fill="none" stroke="#000000" d="M601.1639,-497.9541C597.0324,-505.1102 592.74,-512.5447 588.8037,-519.3626"/>
<polygon fill="#000000" stroke="#000000" points="585.6742,-517.7832 583.7052,-528.1935 591.7364,-521.2832 585.6742,-517.7832"/>
</g>
<!-- 151.101.193.67|09102017|00:28 -->
<g id="node5" class="node">
<title>151.101.193.67|09102017|00:28</title>
<polygon fill="none" stroke="#ff0000" points="502.1312,-329.9243 400.1312,-329.9243 400.1312,-261.9243 502.1312,-261.9243 502.1312,-329.9243"/>
<text text-anchor="middle" x="451.1312" y="-314.7243" font-family="Times,serif" font-size="14.00" fill="#000000">CNN</text>
<text text-anchor="middle" x="451.1312" y="-299.7243" font-family="Times,serif" font-size="14.00" fill="#000000">151.101.193.67</text>
<text text-anchor="middle" x="451.1312" y="-284.7243" font-family="Times,serif" font-size="14.00" fill="#000000">09102017</text>
<text text-anchor="middle" x="451.1312" y="-269.7243" font-family="Times,serif" font-size="14.00" fill="#000000">00:28</text>
</g>
<!-- AS6983 -->
<g id="node6" class="node">
<title>AS6983</title>
<ellipse fill="none" stroke="#000000" cx="296.2727" cy="-331.5774" rx="39.7935" ry="18"/>
<text text-anchor="middle" x="296.2727" y="-327.8774" font-family="Times,serif" font-size="14.00" fill="#000000">AS6983</text>
</g>
<!-- 151.101.193.67|09102017|00:28&#45;&gt;AS6983 -->
<g id="edge5" class="edge">
<title>151.101.193.67|09102017|00:28&#45;&gt;AS6983</title>
<path fill="none" stroke="#000000" d="M399.9956,-307.6973C381.1148,-312.0442 359.8671,-316.9361 341.542,-321.155"/>
<polygon fill="#000000" stroke="#000000" points="340.6555,-317.7675 331.6957,-323.4219 342.2261,-324.589 340.6555,-317.7675"/>
</g>
<!-- US -->
<g id="node7" class="node">
<title>US</title>
<polygon fill="none" stroke="#000000" points="253.4876,-255.8909 222.4829,-237.8909 253.4876,-219.8909 284.4922,-237.8909 253.4876,-255.8909"/>
<text text-anchor="middle" x="253.4876" y="-234.1909" font-family="Times,serif" font-size="14.00" fill="#000000">US</text>
</g>
<!-- AS6983&#45;&gt;US -->
<g id="edge6" class="edge">
<title>AS6983&#45;&gt;US</title>
<path fill="none" stroke="#000000" d="M288.0233,-313.5137C281.2666,-298.7185 271.6539,-277.6696 264.2849,-261.5339"/>
<polygon fill="#000000" stroke="#000000" points="267.3702,-259.8642 260.0323,-252.2219 261.0028,-262.7722 267.3702,-259.8642"/>
</g>
<!-- 54.230.8.34|04102017|15:22 -->
<g id="node8" class="node">
<title>54.230.8.34|04102017|15:22</title>
<polygon fill="none" stroke="#ff0000" points="127.6998,-383.2562 32.6998,-383.2562 32.6998,-315.2562 127.6998,-315.2562 127.6998,-383.2562"/>
<text text-anchor="middle" x="80.1998" y="-368.0562" font-family="Times,serif" font-size="14.00" fill="#000000">TELEGRAPH</text>
<text text-anchor="middle" x="80.1998" y="-353.0562" font-family="Times,serif" font-size="14.00" fill="#000000">54.230.8.34</text>
<text text-anchor="middle" x="80.1998" y="-338.0562" font-family="Times,serif" font-size="14.00" fill="#000000">04102017</text>
<text text-anchor="middle" x="80.1998" y="-323.0562" font-family="Times,serif" font-size="14.00" fill="#000000">15:22</text>
</g>
<!-- AS16509 -->
<g id="node9" class="node">
<title>AS16509</title>
<ellipse fill="none" stroke="#000000" cx="210.7024" cy="-144.2045" rx="44.393" ry="18"/>
<text text-anchor="middle" x="210.7024" y="-140.5045" font-family="Times,serif" font-size="14.00" fill="#000000">AS16509</text>
</g>
<!-- 54.230.8.34|04102017|15:22&#45;&gt;AS16509 -->
<g id="edge7" class="edge">
<title>54.230.8.34|04102017|15:22&#45;&gt;AS16509</title>
<path fill="none" stroke="#000000" d="M102.043,-314.9352C127.93,-274.2602 170.4991,-207.3738 193.9327,-170.5539"/>
<polygon fill="#000000" stroke="#000000" points="197.0397,-172.1906 199.4563,-161.875 191.1343,-168.4321 197.0397,-172.1906"/>
</g>
<!-- AS16509&#45;&gt;US -->
<g id="edge8" class="edge">
<title>AS16509&#45;&gt;US</title>
<path fill="none" stroke="#000000" d="M218.9518,-162.2682C225.7086,-177.0633 235.3213,-198.1123 242.6902,-214.248"/>
<polygon fill="#000000" stroke="#000000" points="239.6049,-215.9176 246.9429,-223.56 245.9724,-213.0097 239.6049,-215.9176"/>
</g>
<!-- 151.101.1.67|09102017|00:28 -->
<g id="node10" class="node">
<title>151.101.1.67|09102017|00:28</title>
<polygon fill="none" stroke="#ff0000" points="432.8808,-427.566 343.8808,-427.566 343.8808,-359.566 432.8808,-359.566 432.8808,-427.566"/>
<text text-anchor="middle" x="388.3808" y="-412.366" font-family="Times,serif" font-size="14.00" fill="#000000">CNN</text>
<text text-anchor="middle" x="388.3808" y="-397.366" font-family="Times,serif" font-size="14.00" fill="#000000">151.101.1.67</text>
<text text-anchor="middle" x="388.3808" y="-382.366" font-family="Times,serif" font-size="14.00" fill="#000000">09102017</text>
<text text-anchor="middle" x="388.3808" y="-367.366" font-family="Times,serif" font-size="14.00" fill="#000000">00:28</text>
</g>
<!-- 151.101.1.67|09102017|00:28&#45;&gt;AS6983 -->
<g id="edge9" class="edge">
<title>151.101.1.67|09102017|00:28&#45;&gt;AS6983</title>
<path fill="none" stroke="#000000" d="M343.6758,-363.4796C338.1555,-359.7644 332.6093,-356.0318 327.3549,-352.4956"/>
<polygon fill="#000000" stroke="#000000" points="329.094,-349.4472 318.8436,-346.7675 325.1856,-355.2545 329.094,-349.4472"/>
</g>
<!-- 151.101.129.67|09102017|00:28 -->
<g id="node11" class="node">
<title>151.101.129.67|09102017|00:28</title>
<polygon fill="none" stroke="#ff0000" points="333.8027,-475.7818 231.8027,-475.7818 231.8027,-407.7818 333.8027,-407.7818 333.8027,-475.7818"/>
<text text-anchor="middle" x="282.8027" y="-460.5818" font-family="Times,serif" font-size="14.00" fill="#000000">CNN</text>
<text text-anchor="middle" x="282.8027" y="-445.5818" font-family="Times,serif" font-size="14.00" fill="#000000">151.101.129.67</text>
<text text-anchor="middle" x="282.8027" y="-430.5818" font-family="Times,serif" font-size="14.00" fill="#000000">09102017</text>
<text text-anchor="middle" x="282.8027" y="-415.5818" font-family="Times,serif" font-size="14.00" fill="#000000">00:28</text>
</g>
<!-- 151.101.129.67|09102017|00:28&#45;&gt;AS6983 -->
<g id="edge11" class="edge">
<title>151.101.129.67|09102017|00:28&#45;&gt;AS6983</title>
<path fill="none" stroke="#000000" d="M286.9908,-407.5166C288.8677,-392.1616 291.0539,-374.275 292.833,-359.7192"/>
<polygon fill="#000000" stroke="#000000" points="296.3071,-360.1436 294.0463,-349.7928 289.3588,-359.2942 296.3071,-360.1436"/>
</g>
<!-- 54.230.8.209|04102017|15:22 -->
<g id="node12" class="node">
<title>54.230.8.209|04102017|15:22</title>
<polygon fill="none" stroke="#ff0000" points="95,-271.8909 0,-271.8909 0,-203.8909 95,-203.8909 95,-271.8909"/>
<text text-anchor="middle" x="47.5" y="-256.6909" font-family="Times,serif" font-size="14.00" fill="#000000">TELEGRAPH</text>
<text text-anchor="middle" x="47.5" y="-241.6909" font-family="Times,serif" font-size="14.00" fill="#000000">54.230.8.209</text>
<text text-anchor="middle" x="47.5" y="-226.6909" font-family="Times,serif" font-size="14.00" fill="#000000">04102017</text>
<text text-anchor="middle" x="47.5" y="-211.6909" font-family="Times,serif" font-size="14.00" fill="#000000">15:22</text>
</g>
<!-- 54.230.8.209|04102017|15:22&#45;&gt;AS16509 -->
<g id="edge13" class="edge">
<title>54.230.8.209|04102017|15:22&#45;&gt;AS16509</title>
<path fill="none" stroke="#000000" d="M95.1436,-210.5411C121.0581,-195.6648 152.5338,-177.5962 176.0874,-164.0752"/>
<polygon fill="#000000" stroke="#000000" points="178.0868,-166.9633 185.0169,-158.9493 174.6018,-160.8924 178.0868,-166.9633"/>
</g>
<!-- 54.230.8.153|04102017|15:22 -->
<g id="node13" class="node">
<title>54.230.8.153|04102017|15:22</title>
<polygon fill="none" stroke="#ff0000" points="127.6998,-160.5256 32.6998,-160.5256 32.6998,-92.5256 127.6998,-92.5256 127.6998,-160.5256"/>
<text text-anchor="middle" x="80.1998" y="-145.3256" font-family="Times,serif" font-size="14.00" fill="#000000">TELEGRAPH</text>
<text text-anchor="middle" x="80.1998" y="-130.3256" font-family="Times,serif" font-size="14.00" fill="#000000">54.230.8.153</text>
<text text-anchor="middle" x="80.1998" y="-115.3256" font-family="Times,serif" font-size="14.00" fill="#000000">04102017</text>
<text text-anchor="middle" x="80.1998" y="-100.3256" font-family="Times,serif" font-size="14.00" fill="#000000">15:22</text>
</g>
<!-- 54.230.8.153|04102017|15:22&#45;&gt;AS16509 -->
<g id="edge15" class="edge">
<title>54.230.8.153|04102017|15:22&#45;&gt;AS16509</title>
<path fill="none" stroke="#000000" d="M128.0531,-133.0082C137.8794,-134.3393 148.2735,-135.7474 158.2519,-137.0991"/>
<polygon fill="#000000" stroke="#000000" points="158.0793,-140.6077 168.4587,-138.4818 159.0191,-133.671 158.0793,-140.6077"/>
</g>
<!-- 54.230.8.121|04102017|15:22 -->
<g id="node14" class="node">
<title>54.230.8.121|04102017|15:22</title>
<polygon fill="none" stroke="#ff0000" points="215.4172,-84.518 120.4172,-84.518 120.4172,-16.518 215.4172,-16.518 215.4172,-84.518"/>
<text text-anchor="middle" x="167.9172" y="-69.318" font-family="Times,serif" font-size="14.00" fill="#000000">TELEGRAPH</text>
<text text-anchor="middle" x="167.9172" y="-54.318" font-family="Times,serif" font-size="14.00" fill="#000000">54.230.8.121</text>
<text text-anchor="middle" x="167.9172" y="-39.318" font-family="Times,serif" font-size="14.00" fill="#000000">04102017</text>
<text text-anchor="middle" x="167.9172" y="-24.318" font-family="Times,serif" font-size="14.00" fill="#000000">15:22</text>
</g>
<!-- 54.230.8.121|04102017|15:22&#45;&gt;AS16509 -->
<g id="edge19" class="edge">
<title>54.230.8.121|04102017|15:22&#45;&gt;AS16509</title>
<path fill="none" stroke="#000000" d="M183.4847,-84.606C188.3735,-95.3109 193.7016,-106.9779 198.3372,-117.1284"/>
<polygon fill="#000000" stroke="#000000" points="195.1945,-118.6724 202.5325,-126.3148 201.562,-115.7645 195.1945,-118.6724"/>
</g>
<!-- 151.101.65.67|09102017|00:28 -->
<g id="node15" class="node">
<title>151.101.65.67|09102017|00:28</title>
<polygon fill="none" stroke="#ff0000" points="215.4172,-459.2638 120.4172,-459.2638 120.4172,-391.2638 215.4172,-391.2638 215.4172,-459.2638"/>
<text text-anchor="middle" x="167.9172" y="-444.0638" font-family="Times,serif" font-size="14.00" fill="#000000">CNN</text>
<text text-anchor="middle" x="167.9172" y="-429.0638" font-family="Times,serif" font-size="14.00" fill="#000000">151.101.65.67</text>
<text text-anchor="middle" x="167.9172" y="-414.0638" font-family="Times,serif" font-size="14.00" fill="#000000">09102017</text>
<text text-anchor="middle" x="167.9172" y="-399.0638" font-family="Times,serif" font-size="14.00" fill="#000000">00:28</text>
</g>
<!-- 151.101.65.67|09102017|00:28&#45;&gt;AS6983 -->
<g id="edge21" class="edge">
<title>151.101.65.67|09102017|00:28&#45;&gt;AS6983</title>
<path fill="none" stroke="#000000" d="M214.6196,-391.1758C232.1587,-378.3741 251.5828,-364.1965 267.0844,-352.8819"/>
<polygon fill="#000000" stroke="#000000" points="269.2421,-355.6402 275.2559,-346.9175 265.1152,-349.9861 269.2421,-355.6402"/>
</g>
<!-- 54.230.8.121|04102017|15:23 -->
<g id="node16" class="node">
<title>54.230.8.121|04102017|15:23</title>
<polygon fill="none" stroke="#ff0000" points="330.3027,-68 235.3027,-68 235.3027,0 330.3027,0 330.3027,-68"/>
<text text-anchor="middle" x="282.8027" y="-52.8" font-family="Times,serif" font-size="14.00" fill="#000000">TELEGRAPH</text>
<text text-anchor="middle" x="282.8027" y="-37.8" font-family="Times,serif" font-size="14.00" fill="#000000">54.230.8.121</text>
<text text-anchor="middle" x="282.8027" y="-22.8" font-family="Times,serif" font-size="14.00" fill="#000000">04102017</text>
<text text-anchor="middle" x="282.8027" y="-7.8" font-family="Times,serif" font-size="14.00" fill="#000000">15:23</text>
</g>
<!-- 54.230.8.121|04102017|15:23&#45;&gt;AS16509 -->
<g id="edge23" class="edge">
<title>54.230.8.121|04102017|15:23&#45;&gt;AS16509</title>
<path fill="none" stroke="#000000" d="M260.3849,-68.2653C249.9095,-84.2768 237.6332,-103.0411 227.9046,-117.911"/>
<polygon fill="#000000" stroke="#000000" points="224.7614,-116.3226 222.2154,-126.607 230.6191,-120.155 224.7614,-116.3226"/>
</g>
<!-- 54.230.8.121|04102017|15:24 -->
<g id="node17" class="node">
<title>54.230.8.121|04102017|15:24</title>
<polygon fill="none" stroke="#ff0000" points="435.8808,-116.2159 340.8808,-116.2159 340.8808,-48.2159 435.8808,-48.2159 435.8808,-116.2159"/>
<text text-anchor="middle" x="388.3808" y="-101.0159" font-family="Times,serif" font-size="14.00" fill="#000000">TELEGRAPH</text>
<text text-anchor="middle" x="388.3808" y="-86.0159" font-family="Times,serif" font-size="14.00" fill="#000000">54.230.8.121</text>
<text text-anchor="middle" x="388.3808" y="-71.0159" font-family="Times,serif" font-size="14.00" fill="#000000">04102017</text>
<text text-anchor="middle" x="388.3808" y="-56.0159" font-family="Times,serif" font-size="14.00" fill="#000000">15:24</text>
</g>
<!-- 54.230.8.121|04102017|15:24&#45;&gt;AS16509 -->
<g id="edge25" class="edge">
<title>54.230.8.121|04102017|15:24&#45;&gt;AS16509</title>
<path fill="none" stroke="#000000" d="M340.7662,-98.8277C313.786,-108.2406 280.2878,-119.9275 254.0445,-129.0832"/>
<polygon fill="#000000" stroke="#000000" points="252.6594,-125.8595 244.3705,-132.4583 254.9653,-132.4688 252.6594,-125.8595"/>
</g>
<!-- 54.230.8.121|04102017|15:25 -->
<g id="node18" class="node">
<title>54.230.8.121|04102017|15:25</title>
<polygon fill="none" stroke="#ff0000" points="498.6312,-213.8575 403.6312,-213.8575 403.6312,-145.8575 498.6312,-145.8575 498.6312,-213.8575"/>
<text text-anchor="middle" x="451.1312" y="-198.6575" font-family="Times,serif" font-size="14.00" fill="#000000">TELEGRAPH</text>
<text text-anchor="middle" x="451.1312" y="-183.6575" font-family="Times,serif" font-size="14.00" fill="#000000">54.230.8.121</text>
<text text-anchor="middle" x="451.1312" y="-168.6575" font-family="Times,serif" font-size="14.00" fill="#000000">04102017</text>
<text text-anchor="middle" x="451.1312" y="-153.6575" font-family="Times,serif" font-size="14.00" fill="#000000">15:25</text>
</g>
<!-- 54.230.8.121|04102017|15:25&#45;&gt;AS16509 -->
<g id="edge27" class="edge">
<title>54.230.8.121|04102017|15:25&#45;&gt;AS16509</title>
<path fill="none" stroke="#000000" d="M403.6302,-172.8136C362.9204,-166.7768 304.3903,-158.0974 262.4893,-151.8839"/>
<polygon fill="#000000" stroke="#000000" points="262.8885,-148.4049 252.4832,-150.4001 261.8616,-155.3292 262.8885,-148.4049"/>
</g>
</g>
</svg>
