<?xml version="1.0" encoding="UTF-8" standalone="no"?>
<!DOCTYPE svg PUBLIC "-//W3C//DTD SVG 1.1//EN"
 "http://www.w3.org/Graphics/SVG/1.1/DTD/svg11.dtd">
<!-- Generated by graphviz version 2.40.1 (20161225.0304)
 -->
<!-- Title: Susan_Barlow Pages: 1 -->
<svg width="758pt" height="539pt"
 viewBox="0.00 0.00 757.63 539.10" xmlns="http://www.w3.org/2000/svg" xmlns:xlink="http://www.w3.org/1999/xlink">
<g id="graph0" class="graph" transform="scale(1 1) rotate(0) translate(4 535.0952)">
<title>Susan_Barlow</title>
<polygon fill="#ffffff" stroke="transparent" points="-4,4 -4,-535.0952 753.6337,-535.0952 753.6337,4 -4,4"/>
<!-- 212.58.244.57 -->
<g id="node1" class="node">
<title>212.58.244.57</title>
<ellipse fill="none" stroke="#000000" cx="518.1751" cy="-383.0797" rx="67.3507" ry="26.7407"/>
<text text-anchor="middle" x="518.1751" y="-386.8797" font-family="Times,serif" font-size="14.00" fill="#000000">BBC</text>
<text text-anchor="middle" x="518.1751" y="-371.8797" font-family="Times,serif" font-size="14.00" fill="#000000">212.58.244.57</text>
</g>
<!-- AS2818 -->
<g id="node2" class="node">
<title>AS2818</title>
<ellipse fill="none" stroke="#000000" cx="633.0083" cy="-397.4526" rx="39.7935" ry="18"/>
<text text-anchor="middle" x="633.0083" y="-393.7526" font-family="Times,serif" font-size="14.00" fill="#000000">AS2818</text>
</g>
<!-- 212.58.244.57&#45;&gt;AS2818 -->
<g id="edge1" class="edge">
<title>212.58.244.57&#45;&gt;AS2818</title>
<path fill="none" stroke="#000000" d="M582.3065,-391.1066C583.0964,-391.2055 583.8846,-391.3041 584.6704,-391.4025"/>
<polygon fill="#000000" stroke="#000000" points="584.3484,-394.8894 594.7056,-392.6585 585.2178,-387.9436 584.3484,-394.8894"/>
</g>
<!-- GB -->
<g id="node3" class="node">
<title>GB</title>
<ellipse fill="none" stroke="#000000" cx="702.5163" cy="-305" rx="27" ry="18"/>
<text text-anchor="middle" x="702.5163" y="-301.3" font-family="Times,serif" font-size="14.00" fill="#000000">GB</text>
</g>
<!-- AS2818&#45;&gt;GB -->
<g id="edge2" class="edge">
<title>AS2818&#45;&gt;GB</title>
<path fill="none" stroke="#000000" d="M646.0822,-380.063C656.7665,-365.8518 672.0024,-345.5865 683.9509,-329.6938"/>
<polygon fill="#000000" stroke="#000000" points="686.9892,-331.4769 690.201,-321.3806 681.394,-327.2703 686.9892,-331.4769"/>
</g>
<!-- 212.58.249.145 -->
<g id="node4" class="node">
<title>212.58.249.145</title>
<ellipse fill="none" stroke="#000000" cx="677.5088" cy="-504.2252" rx="72.25" ry="26.7407"/>
<text text-anchor="middle" x="677.5088" y="-508.0252" font-family="Times,serif" font-size="14.00" fill="#000000">BBC</text>
<text text-anchor="middle" x="677.5088" y="-493.0252" font-family="Times,serif" font-size="14.00" fill="#000000">212.58.249.145</text>
</g>
<!-- 212.58.249.145&#45;&gt;AS2818 -->
<g id="edge3" class="edge">
<title>212.58.249.145&#45;&gt;AS2818</title>
<path fill="none" stroke="#000000" d="M666.3943,-477.5574C659.7001,-461.4957 651.1941,-441.0868 644.4432,-424.8892"/>
<polygon fill="#000000" stroke="#000000" points="647.5764,-423.3085 640.4986,-415.4246 641.1151,-426.0015 647.5764,-423.3085"/>
</g>
<!-- 151.101.193.67 -->
<g id="node5" class="node">
<title>151.101.193.67</title>
<ellipse fill="none" stroke="#000000" cx="72.1249" cy="-214.6162" rx="72.25" ry="26.7407"/>
<text text-anchor="middle" x="72.1249" y="-218.4162" font-family="Times,serif" font-size="14.00" fill="#000000">CNN</text>
<text text-anchor="middle" x="72.1249" y="-203.4162" font-family="Times,serif" font-size="14.00" fill="#000000">151.101.193.67</text>
</g>
<!-- AS6983 -->
<g id="node6" class="node">
<title>AS6983</title>
<ellipse fill="none" stroke="#000000" cx="180.3876" cy="-154.4734" rx="39.7935" ry="18"/>
<text text-anchor="middle" x="180.3876" y="-150.7734" font-family="Times,serif" font-size="14.00" fill="#000000">AS6983</text>
</g>
<!-- 151.101.193.67&#45;&gt;AS6983 -->
<g id="edge5" class="edge">
<title>151.101.193.67&#45;&gt;AS6983</title>
<path fill="none" stroke="#000000" d="M112.4379,-192.2213C123.5044,-186.0735 135.3967,-179.4671 146.0905,-173.5264"/>
<polygon fill="#000000" stroke="#000000" points="148.0866,-176.4213 155.1286,-168.5054 144.6872,-170.3021 148.0866,-176.4213"/>
</g>
<!-- US -->
<g id="node7" class="node">
<title>US</title>
<ellipse fill="none" stroke="#000000" cx="307.9581" cy="-156.4986" rx="27" ry="18"/>
<text text-anchor="middle" x="307.9581" y="-152.7986" font-family="Times,serif" font-size="14.00" fill="#000000">US</text>
</g>
<!-- AS6983&#45;&gt;US -->
<g id="edge6" class="edge">
<title>AS6983&#45;&gt;US</title>
<path fill="none" stroke="#000000" d="M220.0524,-155.1031C236.2522,-155.3603 254.8863,-155.6561 270.8171,-155.909"/>
<polygon fill="#000000" stroke="#000000" points="270.7884,-159.4089 280.8427,-156.0682 270.8996,-152.4098 270.7884,-159.4089"/>
</g>
<!-- 54.230.8.34 -->
<g id="node8" class="node">
<title>54.230.8.34</title>
<ellipse fill="none" stroke="#000000" cx="452.9783" cy="-280.98" rx="67.3507" ry="26.7407"/>
<text text-anchor="middle" x="452.9783" y="-284.78" font-family="Times,serif" font-size="14.00" fill="#000000">TELEGRAPH</text>
<text text-anchor="middle" x="452.9783" y="-269.78" font-family="Times,serif" font-size="14.00" fill="#000000">54.230.8.34</text>
</g>
<!-- AS16509 -->
<g id="node9" class="node">
<title>AS16509</title>
<ellipse fill="none" stroke="#000000" cx="435.5144" cy="-154.1553" rx="44.393" ry="18"/>
<text text-anchor="middle" x="435.5144" y="-150.4553" font-family="Times,serif" font-size="14.00" fill="#000000">AS16509</text>
</g>
<!-- 54.230.8.34&#45;&gt;AS16509 -->
<g id="edge7" class="edge">
<title>54.230.8.34&#45;&gt;AS16509</title>
<path fill="none" stroke="#000000" d="M449.2747,-254.0837C446.3796,-233.0593 442.3659,-203.9111 439.4203,-182.5201"/>
<polygon fill="#000000" stroke="#000000" points="442.8609,-181.848 438.0294,-172.419 435.9263,-182.803 442.8609,-181.848"/>
</g>
<!-- AS16509&#45;&gt;US -->
<g id="edge8" class="edge">
<title>AS16509&#45;&gt;US</title>
<path fill="none" stroke="#000000" d="M391.2594,-154.9683C376.2049,-155.2449 359.5444,-155.5509 345.104,-155.8162"/>
<polygon fill="#000000" stroke="#000000" points="344.9704,-152.318 335.0364,-156.0012 345.099,-159.3168 344.9704,-152.318"/>
</g>
<!-- 151.101.1.67 -->
<g id="node10" class="node">
<title>151.101.1.67</title>
<ellipse fill="none" stroke="#000000" cx="163.7943" cy="-281.441" rx="62.8651" ry="26.7407"/>
<text text-anchor="middle" x="163.7943" y="-285.241" font-family="Times,serif" font-size="14.00" fill="#000000">CNN</text>
<text text-anchor="middle" x="163.7943" y="-270.241" font-family="Times,serif" font-size="14.00" fill="#000000">151.101.1.67</text>
</g>
<!-- 151.101.1.67&#45;&gt;AS6983 -->
<g id="edge9" class="edge">
<title>151.101.1.67&#45;&gt;AS6983</title>
<path fill="none" stroke="#000000" d="M167.3133,-254.5144C170.0641,-233.4663 173.8777,-204.2852 176.6765,-182.8702"/>
<polygon fill="#000000" stroke="#000000" points="180.1726,-183.127 177.998,-172.7577 173.2316,-182.2198 180.1726,-183.127"/>
</g>
<!-- 151.101.129.67 -->
<g id="node11" class="node">
<title>151.101.129.67</title>
<ellipse fill="none" stroke="#000000" cx="74.1022" cy="-90.0781" rx="72.25" ry="26.7407"/>
<text text-anchor="middle" x="74.1022" y="-93.8781" font-family="Times,serif" font-size="14.00" fill="#000000">CNN</text>
<text text-anchor="middle" x="74.1022" y="-78.8781" font-family="Times,serif" font-size="14.00" fill="#000000">151.101.129.67</text>
</g>
<!-- 151.101.129.67&#45;&gt;AS6983 -->
<g id="edge11" class="edge">
<title>151.101.129.67&#45;&gt;AS6983</title>
<path fill="none" stroke="#000000" d="M112.1735,-113.1444C123.8297,-120.2066 136.5404,-127.9077 147.7969,-134.7276"/>
<polygon fill="#000000" stroke="#000000" points="146.0983,-137.7908 156.4647,-139.9792 149.7257,-131.8039 146.0983,-137.7908"/>
</g>
<!-- 54.230.8.209 -->
<g id="node12" class="node">
<title>54.230.8.209</title>
<ellipse fill="none" stroke="#000000" cx="544.3394" cy="-213.1429" rx="67.3507" ry="26.7407"/>
<text text-anchor="middle" x="544.3394" y="-216.9429" font-family="Times,serif" font-size="14.00" fill="#000000">TELEGRAPH</text>
<text text-anchor="middle" x="544.3394" y="-201.9429" font-family="Times,serif" font-size="14.00" fill="#000000">54.230.8.209</text>
</g>
<!-- 54.230.8.209&#45;&gt;AS16509 -->
<g id="edge13" class="edge">
<title>54.230.8.209&#45;&gt;AS16509</title>
<path fill="none" stroke="#000000" d="M504.4349,-191.513C493.55,-185.613 481.8295,-179.26 471.196,-173.4962"/>
<polygon fill="#000000" stroke="#000000" points="472.639,-170.2973 462.1795,-168.6089 469.3032,-176.4514 472.639,-170.2973"/>
</g>
<!-- 54.230.8.153 -->
<g id="node13" class="node">
<title>54.230.8.153</title>
<ellipse fill="none" stroke="#000000" cx="448.2286" cy="-26.8701" rx="67.3507" ry="26.7407"/>
<text text-anchor="middle" x="448.2286" y="-30.6701" font-family="Times,serif" font-size="14.00" fill="#000000">TELEGRAPH</text>
<text text-anchor="middle" x="448.2286" y="-15.6701" font-family="Times,serif" font-size="14.00" fill="#000000">54.230.8.153</text>
</g>
<!-- 54.230.8.153&#45;&gt;AS16509 -->
<g id="edge15" class="edge">
<title>54.230.8.153&#45;&gt;AS16509</title>
<path fill="none" stroke="#000000" d="M445.5322,-53.864C443.4245,-74.9647 440.5024,-104.2189 438.358,-125.6875"/>
<polygon fill="#000000" stroke="#000000" points="434.8567,-125.5269 437.3454,-135.8253 441.822,-126.2227 434.8567,-125.5269"/>
</g>
<!-- 54.230.8.121 -->
<g id="node14" class="node">
<title>54.230.8.121</title>
<ellipse fill="none" stroke="#000000" cx="541.202" cy="-88.6163" rx="67.3507" ry="26.7407"/>
<text text-anchor="middle" x="541.202" y="-92.4163" font-family="Times,serif" font-size="14.00" fill="#000000">TELEGRAPH</text>
<text text-anchor="middle" x="541.202" y="-77.4163" font-family="Times,serif" font-size="14.00" fill="#000000">54.230.8.121</text>
</g>
<!-- 54.230.8.121&#45;&gt;AS16509 -->
<g id="edge19" class="edge">
<title>54.230.8.121&#45;&gt;AS16509</title>
<path fill="none" stroke="#000000" d="M504.5342,-111.3548C492.8675,-118.5895 480.0365,-126.5463 468.6356,-133.6162"/>
<polygon fill="#000000" stroke="#000000" points="466.5024,-130.8207 459.8484,-139.0654 470.1915,-136.7697 466.5024,-130.8207"/>
</g>
<!-- 151.101.65.67 -->
<g id="node15" class="node">
<title>151.101.65.67</title>
<ellipse fill="none" stroke="#000000" cx="166.7796" cy="-27.2863" rx="67.3507" ry="26.7407"/>
<text text-anchor="middle" x="166.7796" y="-31.0863" font-family="Times,serif" font-size="14.00" fill="#000000">CNN</text>
<text text-anchor="middle" x="166.7796" y="-16.0863" font-family="Times,serif" font-size="14.00" fill="#000000">151.101.65.67</text>
</g>
<!-- 151.101.65.67&#45;&gt;AS6983 -->
<g id="edge21" class="edge">
<title>151.101.65.67&#45;&gt;AS6983</title>
<path fill="none" stroke="#000000" d="M169.6655,-54.2594C171.9214,-75.3439 175.0489,-104.5754 177.3441,-126.0275"/>
<polygon fill="#000000" stroke="#000000" points="173.8839,-126.5866 178.428,-136.1575 180.8442,-125.8419 173.8839,-126.5866"/>
</g>
</g>
</svg>
