<?xml version="1.0" encoding="UTF-8" standalone="no"?>
<!DOCTYPE svg PUBLIC "-//W3C//DTD SVG 1.1//EN"
 "http://www.w3.org/Graphics/SVG/1.1/DTD/svg11.dtd">
<!-- Generated by graphviz version 2.40.1 (20161225.0304)
 -->
<!-- Title: Susan_Barlow Pages: 1 -->
<svg width="697pt" height="587pt"
 viewBox="0.00 0.00 697.42 587.02" xmlns="http://www.w3.org/2000/svg" xmlns:xlink="http://www.w3.org/1999/xlink">
<g id="graph0" class="graph" transform="scale(1 1) rotate(0) translate(4 583.0213)">
<title>Susan_Barlow</title>
<polygon fill="#ffffff" stroke="transparent" points="-4,4 -4,-583.0213 693.4194,-583.0213 693.4194,4 -4,4"/>
<!-- 212.58.244.57 -->
<g id="node1" class="node">
<title>212.58.244.57</title>
<ellipse fill="none" stroke="#000000" cx="445.0449" cy="-461.5729" rx="67.3507" ry="26.7407"/>
<text text-anchor="middle" x="445.0449" y="-465.3729" font-family="Times,serif" font-size="14.00" fill="#000000">BBC</text>
<text text-anchor="middle" x="445.0449" y="-450.3729" font-family="Times,serif" font-size="14.00" fill="#000000">212.58.244.57</text>
</g>
<!-- AS2818 -->
<g id="node2" class="node">
<title>AS2818</title>
<ellipse fill="none" stroke="#000000" cx="559.878" cy="-461.5729" rx="39.7935" ry="18"/>
<text text-anchor="middle" x="559.878" y="-457.8729" font-family="Times,serif" font-size="14.00" fill="#000000">AS2818</text>
</g>
<!-- 212.58.244.57&#45;&gt;AS2818 -->
<g id="edge1" class="edge">
<title>212.58.244.57&#45;&gt;AS2818</title>
<path fill="none" stroke="#000000" d="M512.508,-461.5729C512.6666,-461.5729 512.8252,-461.5729 512.9836,-461.5729"/>
<polygon fill="#000000" stroke="#000000" points="510.0221,-465.073 520.0221,-461.5729 510.022,-458.073 510.0221,-465.073"/>
</g>
<!-- GB -->
<g id="node3" class="node">
<title>GB</title>
<ellipse fill="none" stroke="#ff0000" cx="617.2945" cy="-561.0213" rx="27" ry="18"/>
<text text-anchor="middle" x="617.2945" y="-557.3213" font-family="Times,serif" font-size="14.00" fill="#000000">GB</text>
</g>
<!-- AS2818&#45;&gt;GB -->
<g id="edge2" class="edge">
<title>AS2818&#45;&gt;GB</title>
<path fill="none" stroke="#000000" d="M570.1429,-479.3523C579.0697,-494.814 592.1224,-517.422 602.2326,-534.9332"/>
<polygon fill="#000000" stroke="#000000" points="599.4706,-537.1494 607.5017,-544.0596 605.5328,-533.6494 599.4706,-537.1494"/>
</g>
<!-- 212.58.249.145 -->
<g id="node4" class="node">
<title>212.58.249.145</title>
<ellipse fill="none" stroke="#000000" cx="617.2945" cy="-362.1245" rx="72.25" ry="26.7407"/>
<text text-anchor="middle" x="617.2945" y="-365.9245" font-family="Times,serif" font-size="14.00" fill="#000000">BBC</text>
<text text-anchor="middle" x="617.2945" y="-350.9245" font-family="Times,serif" font-size="14.00" fill="#000000">212.58.249.145</text>
</g>
<!-- 212.58.249.145&#45;&gt;AS2818 -->
<g id="edge3" class="edge">
<title>212.58.249.145&#45;&gt;AS2818</title>
<path fill="none" stroke="#000000" d="M602.0587,-388.5137C593.7193,-402.958 583.4184,-420.7997 575.0837,-435.2357"/>
<polygon fill="#000000" stroke="#000000" points="571.9,-433.7502 569.931,-444.1605 577.9621,-437.2503 571.9,-433.7502"/>
</g>
<!-- 151.101.193.67 -->
<g id="node5" class="node">
<title>151.101.193.67</title>
<ellipse fill="none" stroke="#000000" cx="412.5808" cy="-271.1087" rx="72.25" ry="26.7407"/>
<text text-anchor="middle" x="412.5808" y="-274.9087" font-family="Times,serif" font-size="14.00" fill="#000000">CNN</text>
<text text-anchor="middle" x="412.5808" y="-259.9087" font-family="Times,serif" font-size="14.00" fill="#000000">151.101.193.67</text>
</g>
<!-- AS6983 -->
<g id="node6" class="node">
<title>AS6983</title>
<ellipse fill="none" stroke="#000000" cx="239.878" cy="-293.039" rx="39.7935" ry="18"/>
<text text-anchor="middle" x="239.878" y="-289.339" font-family="Times,serif" font-size="14.00" fill="#000000">AS6983</text>
</g>
<!-- 151.101.193.67&#45;&gt;AS6983 -->
<g id="edge5" class="edge">
<title>151.101.193.67&#45;&gt;AS6983</title>
<path fill="none" stroke="#000000" d="M343.8278,-279.8392C325.2882,-282.1934 305.6183,-284.6911 288.4357,-286.873"/>
<polygon fill="#000000" stroke="#000000" points="287.5702,-283.4547 278.0908,-288.1866 288.4521,-290.3989 287.5702,-283.4547"/>
</g>
<!-- US -->
<g id="node7" class="node">
<title>US</title>
<ellipse fill="none" stroke="#ff0000" cx="239.878" cy="-199.5729" rx="27" ry="18"/>
<text text-anchor="middle" x="239.878" y="-195.8729" font-family="Times,serif" font-size="14.00" fill="#000000">US</text>
</g>
<!-- AS6983&#45;&gt;US -->
<g id="edge6" class="edge">
<title>AS6983&#45;&gt;US</title>
<path fill="none" stroke="#000000" d="M239.878,-275.0178C239.878,-261.6565 239.878,-243.1829 239.878,-227.8605"/>
<polygon fill="#000000" stroke="#000000" points="243.3779,-227.8577 239.878,-217.8577 236.3779,-227.8576 243.3779,-227.8577"/>
</g>
<!-- 54.230.8.34 -->
<g id="node8" class="node">
<title>54.230.8.34</title>
<ellipse fill="none" stroke="#000000" cx="67.1751" cy="-128.037" rx="67.3507" ry="26.7407"/>
<text text-anchor="middle" x="67.1751" y="-131.837" font-family="Times,serif" font-size="14.00" fill="#000000">TELEGRAPH</text>
<text text-anchor="middle" x="67.1751" y="-116.837" font-family="Times,serif" font-size="14.00" fill="#000000">54.230.8.34</text>
</g>
<!-- AS16509 -->
<g id="node9" class="node">
<title>AS16509</title>
<ellipse fill="none" stroke="#000000" cx="239.878" cy="-106.1068" rx="44.393" ry="18"/>
<text text-anchor="middle" x="239.878" y="-102.4068" font-family="Times,serif" font-size="14.00" fill="#000000">AS16509</text>
</g>
<!-- 54.230.8.34&#45;&gt;AS16509 -->
<g id="edge7" class="edge">
<title>54.230.8.34&#45;&gt;AS16509</title>
<path fill="none" stroke="#000000" d="M131.4833,-119.871C149.922,-117.5296 169.7977,-115.0058 187.4311,-112.7666"/>
<polygon fill="#000000" stroke="#000000" points="188.0471,-116.2166 197.5265,-111.4847 187.1652,-109.2724 188.0471,-116.2166"/>
</g>
<!-- AS16509&#45;&gt;US -->
<g id="edge8" class="edge">
<title>AS16509&#45;&gt;US</title>
<path fill="none" stroke="#000000" d="M239.878,-124.128C239.878,-137.4892 239.878,-155.9628 239.878,-171.2853"/>
<polygon fill="#000000" stroke="#000000" points="236.3779,-171.2881 239.878,-181.2881 243.3779,-171.2881 236.3779,-171.2881"/>
</g>
<!-- 151.101.1.67 -->
<g id="node10" class="node">
<title>151.101.1.67</title>
<ellipse fill="none" stroke="#000000" cx="311.4138" cy="-372.2757" rx="62.8651" ry="26.7407"/>
<text text-anchor="middle" x="311.4138" y="-376.0757" font-family="Times,serif" font-size="14.00" fill="#000000">CNN</text>
<text text-anchor="middle" x="311.4138" y="-361.0757" font-family="Times,serif" font-size="14.00" fill="#000000">151.101.1.67</text>
</g>
<!-- 151.101.1.67&#45;&gt;AS6983 -->
<g id="edge9" class="edge">
<title>151.101.1.67&#45;&gt;AS6983</title>
<path fill="none" stroke="#000000" d="M288.3857,-346.7685C279.8339,-337.2962 270.1645,-326.5859 261.7217,-317.2342"/>
<polygon fill="#000000" stroke="#000000" points="264.2688,-314.8325 254.9697,-309.7553 259.073,-319.5233 264.2688,-314.8325"/>
</g>
<!-- 151.101.129.67 -->
<g id="node11" class="node">
<title>151.101.129.67</title>
<ellipse fill="none" stroke="#000000" cx="168.3421" cy="-372.2757" rx="72.25" ry="26.7407"/>
<text text-anchor="middle" x="168.3421" y="-376.0757" font-family="Times,serif" font-size="14.00" fill="#000000">CNN</text>
<text text-anchor="middle" x="168.3421" y="-361.0757" font-family="Times,serif" font-size="14.00" fill="#000000">151.101.129.67</text>
</g>
<!-- 151.101.129.67&#45;&gt;AS6983 -->
<g id="edge11" class="edge">
<title>151.101.129.67&#45;&gt;AS6983</title>
<path fill="none" stroke="#000000" d="M191.3703,-346.7685C199.922,-337.2962 209.5914,-326.5859 218.0342,-317.2342"/>
<polygon fill="#000000" stroke="#000000" points="220.683,-319.5233 224.7863,-309.7553 215.4872,-314.8325 220.683,-319.5233"/>
</g>
<!-- 54.230.8.209 -->
<g id="node12" class="node">
<title>54.230.8.209</title>
<ellipse fill="none" stroke="#000000" cx="168.3421" cy="-26.8701" rx="67.3507" ry="26.7407"/>
<text text-anchor="middle" x="168.3421" y="-30.6701" font-family="Times,serif" font-size="14.00" fill="#000000">TELEGRAPH</text>
<text text-anchor="middle" x="168.3421" y="-15.6701" font-family="Times,serif" font-size="14.00" fill="#000000">54.230.8.209</text>
</g>
<!-- 54.230.8.209&#45;&gt;AS16509 -->
<g id="edge13" class="edge">
<title>54.230.8.209&#45;&gt;AS16509</title>
<path fill="none" stroke="#000000" d="M191.3703,-52.3772C199.7101,-61.6149 209.1129,-72.0299 217.4045,-81.214"/>
<polygon fill="#000000" stroke="#000000" points="215.0511,-83.8303 224.3502,-88.9075 220.2469,-79.1395 215.0511,-83.8303"/>
</g>
<!-- 54.230.8.153 -->
<g id="node13" class="node">
<title>54.230.8.153</title>
<ellipse fill="none" stroke="#000000" cx="311.4138" cy="-26.8701" rx="67.3507" ry="26.7407"/>
<text text-anchor="middle" x="311.4138" y="-30.6701" font-family="Times,serif" font-size="14.00" fill="#000000">TELEGRAPH</text>
<text text-anchor="middle" x="311.4138" y="-15.6701" font-family="Times,serif" font-size="14.00" fill="#000000">54.230.8.153</text>
</g>
<!-- 54.230.8.153&#45;&gt;AS16509 -->
<g id="edge15" class="edge">
<title>54.230.8.153&#45;&gt;AS16509</title>
<path fill="none" stroke="#000000" d="M288.3857,-52.3772C280.0458,-61.6149 270.643,-72.0299 262.3515,-81.214"/>
<polygon fill="#000000" stroke="#000000" points="259.509,-79.1395 255.4057,-88.9075 264.7048,-83.8303 259.509,-79.1395"/>
</g>
<!-- 54.230.8.121 -->
<g id="node14" class="node">
<title>54.230.8.121</title>
<ellipse fill="none" stroke="#000000" cx="412.5808" cy="-128.037" rx="67.3507" ry="26.7407"/>
<text text-anchor="middle" x="412.5808" y="-131.837" font-family="Times,serif" font-size="14.00" fill="#000000">TELEGRAPH</text>
<text text-anchor="middle" x="412.5808" y="-116.837" font-family="Times,serif" font-size="14.00" fill="#000000">54.230.8.121</text>
</g>
<!-- 54.230.8.121&#45;&gt;AS16509 -->
<g id="edge19" class="edge">
<title>54.230.8.121&#45;&gt;AS16509</title>
<path fill="none" stroke="#000000" d="M348.2726,-119.871C329.834,-117.5296 309.9582,-115.0058 292.3248,-112.7666"/>
<polygon fill="#000000" stroke="#000000" points="292.5907,-109.2724 282.2295,-111.4847 291.7089,-116.2166 292.5907,-109.2724"/>
</g>
<!-- 151.101.65.67 -->
<g id="node15" class="node">
<title>151.101.65.67</title>
<ellipse fill="none" stroke="#000000" cx="67.1751" cy="-271.1087" rx="67.3507" ry="26.7407"/>
<text text-anchor="middle" x="67.1751" y="-274.9087" font-family="Times,serif" font-size="14.00" fill="#000000">CNN</text>
<text text-anchor="middle" x="67.1751" y="-259.9087" font-family="Times,serif" font-size="14.00" fill="#000000">151.101.65.67</text>
</g>
<!-- 151.101.65.67&#45;&gt;AS6983 -->
<g id="edge21" class="edge">
<title>151.101.65.67&#45;&gt;AS6983</title>
<path fill="none" stroke="#000000" d="M131.4833,-279.2747C151.389,-281.8024 172.9695,-284.5428 191.5955,-286.9079"/>
<polygon fill="#000000" stroke="#000000" points="191.2486,-290.3919 201.6099,-288.1796 192.1305,-283.4477 191.2486,-290.3919"/>
</g>
</g>
</svg>
